<?xml version="1.0" encoding="UTF-8" standalone="no"?>
<!-- 2026-01-24 18:42:38 Generated by QCAD 3.32.6 SVG Exporter -->

<svg
   width="297mm"
   height="210mm"
   viewBox="-55.8188 -30.5688 296.99999 210"
   version="1.1"
   style="fill:none;stroke-linecap:round;stroke-linejoin:round"
   id="svg36"
   sodipodi:docname="faceplate_sticker.svg"
   inkscape:version="1.2.2 (b0a8486541, 2022-12-01)"
   xmlns:inkscape="http://www.inkscape.org/namespaces/inkscape"
   xmlns:sodipodi="http://sodipodi.sourceforge.net/DTD/sodipodi-0.dtd"
   xmlns="http://www.w3.org/2000/svg"
   xmlns:svg="http://www.w3.org/2000/svg">
  <defs
     id="defs40" />
  <sodipodi:namedview
     id="namedview38"
     pagecolor="#ffffff"
     bordercolor="#666666"
     borderopacity="1.0"
     inkscape:showpageshadow="2"
     inkscape:pageopacity="0.0"
     inkscape:pagecheckerboard="0"
     inkscape:deskcolor="#d1d1d1"
     inkscape:document-units="mm"
     showgrid="false"
     showguides="true"
     inkscape:zoom="0.5"
     inkscape:cx="320"
     inkscape:cy="285"
     inkscape:window-width="1920"
     inkscape:window-height="1011"
     inkscape:window-x="0"
     inkscape:window-y="0"
     inkscape:window-maximized="1"
     inkscape:current-layer="g1752-2" />
  <g
     transform="matrix(1,0,0,-1,13.229169,12.700002)"
     id="g34"
     inkscape:label="g34">
    <!-- Circle -->
    <!-- Line -->
    <!-- Circle -->
    <!-- Spline -->
    <!-- Line -->
    <!-- Circle -->
    <!-- Spline -->
    <!-- Line -->
    <!-- Line -->
    <!-- Circle -->
    <!-- Spline -->
    <!-- Line -->
    <!-- Line -->
    <!-- Spline -->
    <!-- Line -->
    <!-- Line -->
    <g
       id="g1752-2"
       style="fill:none;stroke-linecap:round;stroke-linejoin:round"
       transform="translate(-1.7729021,-61.313658)">
      <g
         id="g616"
         transform="translate(8.6205129,-11.377083)">
        <circle
           cx="-40.974712"
           cy="31.422668"
           r="3.5192654"
           style="stroke:#000000;stroke-width:0.402805"
           id="circle2-0" />
        <path
           d="M 67.85189,-22.901012 V 31.367684"
           style="stroke:#000000;stroke-width:0.402805"
           id="path4-6" />
        <circle
           cx="-40.974712"
           cy="-22.955994"
           r="3.5192654"
           style="stroke:#000000;stroke-width:0.402805"
           id="circle6-1" />
        <path
           d="m 64.203081,-26.54982 c 0.06012,0 0.119936,0.0015 0.179651,0.0044 0.05972,0.003 0.119231,0.0074 0.178544,0.0133 0.05922,0.0058 0.118323,0.0132 0.177234,0.02196 0.05891,0.0087 0.117619,0.01894 0.176026,0.03052 0.0293,0.0058 0.0585,0.01198 0.0876,0.01852 0.0291,0.0065 0.0582,0.0135 0.08731,0.02074 0.029,0.0072 0.058,0.0148 0.0869,0.02286 0.0145,0.0039 0.0289,0.008 0.0434,0.01228 0.0144,0.0041 0.0288,0.0083 0.0431,0.01279 0.0287,0.0086 0.0573,0.01772 0.0856,0.02708 0.0284,0.0092 0.0566,0.01904 0.08469,0.029 0.05609,0.02014 0.111578,0.04149 0.166359,0.06414 0.05498,0.02286 0.109361,0.04692 0.163136,0.0724 0.05378,0.02538 0.106844,0.05216 0.159309,0.08016 0.05256,0.0281 0.104428,0.0575 0.155584,0.08812 0.02568,0.0154 0.05106,0.03102 0.07633,0.04702 0.02538,0.01602 0.05045,0.03242 0.07542,0.04904 0.01248,0.0083 0.02498,0.01682 0.03736,0.02528 0.01238,0.0084 0.02478,0.01712 0.03706,0.02578 0.01238,0.0086 0.02468,0.01742 0.03686,0.02618 0.01218,0.0088 0.02436,0.01772 0.03636,0.02668 0.02416,0.01792 0.04804,0.03605 0.0717,0.05448 0.02356,0.01842 0.04692,0.03706 0.06998,0.05609 0.04622,0.03786 0.09134,0.07674 0.135444,0.116713 0.0441,0.03998 0.0872,0.08096 0.1293,0.123056 0.042,0.042 0.08298,0.0851 0.122956,0.129199 0.03998,0.0441 0.07895,0.08922 0.116813,0.135444 0.01894,0.02306 0.03766,0.04642 0.05609,0.07008 0.01842,0.02366 0.03656,0.04753 0.05448,0.0716 0.0088,0.01208 0.01782,0.02426 0.02658,0.03646 0.0088,0.01218 0.01762,0.02446 0.02628,0.03686 0.01732,0.02457 0.03434,0.04944 0.05096,0.07442 0.01672,0.02498 0.03304,0.05005 0.04904,0.07532 0.01602,0.02528 0.03172,0.05076 0.04702,0.07633 0.03072,0.05126 0.06002,0.103119 0.08812,0.155584 0.028,0.05246 0.05478,0.105535 0.08016,0.159309 0.02548,0.05378 0.04954,0.108154 0.0724,0.163136 0.02266,0.05478 0.044,0.110268 0.06414,0.166359 0.0099,0.0281 0.01974,0.0563 0.029,0.08468 0.0093,0.0283 0.01842,0.0569 0.02708,0.0856 0.0044,0.0143 0.0086,0.0287 0.01278,0.0431 0.0042,0.0145 0.0083,0.0289 0.01228,0.0434 0.008,0.0289 0.0156,0.0579 0.02286,0.0869 0.0073,0.0291 0.0142,0.0582 0.02074,0.08731 0.0065,0.0291 0.01269,0.0583 0.01853,0.0876 0.01158,0.0584 0.02175,0.117116 0.03052,0.176026 0.0087,0.05891 0.01612,0.117922 0.02196,0.177235 0.0058,0.05932 0.01028,0.118827 0.0133,0.178543 0.0029,0.05972 0.0044,0.119532 0.0044,0.179651"
           style="stroke:#000000;stroke-width:0.402805"
           id="path8-5" />
        <path
           d="M -40.919733,-26.54982 H 64.203081"
           style="stroke:#000000;stroke-width:0.402805"
           id="path10-5" />
        <circle
           cx="64.258064"
           cy="-22.955994"
           r="3.5192654"
           style="stroke:#000000;stroke-width:0.402805"
           id="circle12-4" />
        <path
           d="m -44.568542,-22.901012 c 0,-0.06012 0.0015,-0.119935 0.0044,-0.179651 0.003,-0.05972 0.0074,-0.11923 0.0133,-0.178543 0.0058,-0.05922 0.0132,-0.118324 0.02196,-0.177234 0.0087,-0.05891 0.01894,-0.11762 0.03052,-0.176026 0.0058,-0.0293 0.01198,-0.0585 0.01853,-0.08761 0.0065,-0.0291 0.0135,-0.0582 0.02074,-0.0873 0.0072,-0.029 0.0148,-0.058 0.02286,-0.0869 0.0039,-0.0145 0.008,-0.0289 0.01228,-0.0434 0.0041,-0.0144 0.0083,-0.0288 0.01278,-0.0431 0.0086,-0.0287 0.01772,-0.0573 0.02708,-0.0856 0.0092,-0.0284 0.01904,-0.0566 0.029,-0.08469 0.02014,-0.05609 0.04149,-0.111577 0.06414,-0.166358 0.02286,-0.05498 0.04692,-0.109362 0.0724,-0.163136 0.02538,-0.05378 0.05216,-0.106845 0.08016,-0.15931 0.0281,-0.05256 0.0575,-0.104427 0.08812,-0.155584 0.0154,-0.02568 0.03102,-0.05106 0.04702,-0.07633 0.01602,-0.02538 0.03242,-0.05046 0.04904,-0.07542 0.0083,-0.01248 0.01682,-0.02498 0.02528,-0.03736 0.0084,-0.01238 0.01712,-0.02478 0.02578,-0.03706 0.0086,-0.01238 0.01742,-0.02468 0.02618,-0.03686 0.0088,-0.01218 0.01772,-0.02437 0.02668,-0.03636 0.01792,-0.02416 0.03605,-0.04804 0.05448,-0.0717 0.01842,-0.02356 0.03706,-0.04692 0.05608,-0.06998 0.03786,-0.04622 0.07674,-0.09134 0.116713,-0.135443 0.03998,-0.0441 0.08096,-0.08721 0.123057,-0.1293 0.042,-0.042 0.0851,-0.08298 0.129199,-0.122956 0.0441,-0.03998 0.08922,-0.07896 0.135444,-0.116814 0.02306,-0.01894 0.04642,-0.03766 0.07008,-0.05608 0.02366,-0.01843 0.04753,-0.03656 0.0716,-0.05448 0.01208,-0.0088 0.02426,-0.01782 0.03646,-0.02658 0.01218,-0.0088 0.02446,-0.01762 0.03686,-0.02628 0.02458,-0.01732 0.04944,-0.03434 0.07442,-0.05096 0.02498,-0.01672 0.05004,-0.03303 0.07532,-0.04904 0.02528,-0.01602 0.05076,-0.03172 0.07633,-0.04702 0.05126,-0.03072 0.103119,-0.06002 0.155584,-0.08812 0.05246,-0.028 0.105535,-0.05478 0.159309,-0.08016 0.05378,-0.02548 0.108153,-0.04954 0.163136,-0.0724 0.05478,-0.02266 0.110268,-0.044 0.166358,-0.06414 0.0281,-0.0099 0.0563,-0.01974 0.08469,-0.029 0.0283,-0.0093 0.0569,-0.01842 0.0856,-0.02708 0.0143,-0.0044 0.0287,-0.0086 0.0431,-0.01279 0.0145,-0.0042 0.0289,-0.0083 0.0434,-0.01228 0.0289,-0.008 0.0579,-0.0156 0.0869,-0.02286 0.0291,-0.0073 0.0582,-0.0142 0.08731,-0.02074 0.0291,-0.0065 0.0583,-0.01268 0.08761,-0.01852 0.0584,-0.01158 0.117116,-0.02175 0.176026,-0.03052 0.05892,-0.0087 0.117921,-0.01612 0.177234,-0.02196 0.05932,-0.0058 0.118828,-0.01028 0.178544,-0.0133 0.05972,-0.0029 0.119532,-0.0044 0.179651,-0.0044"
           style="stroke:#000000;stroke-width:0.402805"
           id="path14-7" />
        <circle
           cx="64.258064"
           cy="31.422668"
           r="3.5192654"
           style="stroke:#000000;stroke-width:0.402805"
           id="circle20-6" />
        <path
           d="m -40.919733,35.016492 c -0.06012,0 -0.119936,-0.0015 -0.179651,-0.0044 -0.05972,-0.003 -0.119231,-0.0074 -0.178544,-0.0133 -0.05922,-0.0058 -0.118323,-0.0132 -0.177234,-0.02196 -0.05891,-0.0087 -0.117619,-0.01894 -0.176026,-0.03052 -0.0293,-0.0058 -0.0585,-0.01198 -0.0876,-0.01852 -0.0291,-0.0065 -0.0582,-0.0135 -0.08731,-0.02074 -0.029,-0.0072 -0.058,-0.0148 -0.0869,-0.02286 -0.0145,-0.0039 -0.0289,-0.008 -0.0434,-0.01228 -0.0144,-0.0041 -0.0288,-0.0083 -0.0431,-0.01279 -0.0287,-0.0086 -0.0573,-0.01772 -0.0856,-0.02708 -0.0284,-0.0092 -0.0566,-0.01904 -0.08469,-0.029 -0.05609,-0.02014 -0.111578,-0.04149 -0.166359,-0.06414 -0.05498,-0.02286 -0.109361,-0.04692 -0.163136,-0.0724 -0.05378,-0.02538 -0.106844,-0.05216 -0.159309,-0.08016 -0.05256,-0.0281 -0.104428,-0.0575 -0.155584,-0.08812 -0.02568,-0.0154 -0.05106,-0.03102 -0.07633,-0.04702 -0.02538,-0.01602 -0.05045,-0.03242 -0.07542,-0.04904 -0.01248,-0.0083 -0.02498,-0.01682 -0.03736,-0.02528 -0.01238,-0.0084 -0.02478,-0.01712 -0.03706,-0.02578 -0.01238,-0.0086 -0.02468,-0.01742 -0.03686,-0.02618 -0.01218,-0.0088 -0.02436,-0.01772 -0.03636,-0.02668 -0.02416,-0.01792 -0.04804,-0.03605 -0.0717,-0.05448 -0.02356,-0.01842 -0.04692,-0.03706 -0.06998,-0.05609 -0.04622,-0.03786 -0.09134,-0.07674 -0.135444,-0.116713 -0.0441,-0.03998 -0.0872,-0.08096 -0.1293,-0.123056 -0.042,-0.042 -0.08298,-0.0851 -0.122956,-0.129199 -0.03998,-0.0441 -0.07895,-0.08922 -0.116813,-0.135444 -0.01894,-0.02306 -0.03766,-0.04642 -0.05609,-0.07008 -0.01842,-0.02366 -0.03656,-0.04753 -0.05448,-0.0716 -0.0088,-0.01208 -0.01782,-0.02426 -0.02658,-0.03646 -0.0088,-0.01218 -0.01762,-0.02446 -0.02628,-0.03686 -0.01732,-0.02457 -0.03434,-0.04944 -0.05096,-0.07442 -0.01672,-0.02498 -0.03304,-0.05005 -0.04904,-0.07532 -0.01602,-0.02528 -0.03172,-0.05076 -0.04702,-0.07633 -0.03072,-0.05126 -0.06002,-0.103119 -0.08812,-0.155584 -0.028,-0.05246 -0.05478,-0.105535 -0.08016,-0.159309 -0.02548,-0.05378 -0.04954,-0.108154 -0.0724,-0.163136 -0.02266,-0.05478 -0.044,-0.110268 -0.06414,-0.166359 -0.0099,-0.0281 -0.01974,-0.0563 -0.029,-0.08468 -0.0093,-0.0283 -0.01842,-0.0569 -0.02708,-0.0856 -0.0044,-0.0143 -0.0086,-0.0287 -0.01278,-0.0431 -0.0042,-0.0145 -0.0083,-0.0289 -0.01228,-0.0434 -0.008,-0.0289 -0.0156,-0.0579 -0.02286,-0.0869 -0.0073,-0.0291 -0.0142,-0.0582 -0.02074,-0.08731 -0.0065,-0.0291 -0.01269,-0.0583 -0.01853,-0.0876 -0.01158,-0.0584 -0.02175,-0.117116 -0.03052,-0.176026 -0.0087,-0.05891 -0.01612,-0.117922 -0.02196,-0.177235 -0.0058,-0.05932 -0.01028,-0.118827 -0.0133,-0.178543 -0.0029,-0.05972 -0.0044,-0.119532 -0.0044,-0.179651"
           style="stroke:#000000;stroke-width:0.402805"
           id="path22-5" />
        <path
           d="M -44.568542,31.367684 V -22.901012"
           style="stroke:#000000;stroke-width:0.402805"
           id="path24-6" />
        <path
           d="M 64.203081,35.016492 H -40.919733"
           style="stroke:#000000;stroke-width:0.402805"
           id="path26-9" />
        <path
           d="m 67.85189,31.367684 c 0,0.06012 -0.0015,0.119935 -0.0044,0.179651 -0.003,0.05972 -0.0074,0.11923 -0.0133,0.178543 -0.0058,0.05922 -0.0132,0.118324 -0.02196,0.177234 -0.0087,0.05891 -0.01894,0.11762 -0.03052,0.176026 -0.0058,0.0293 -0.01198,0.0585 -0.01853,0.08761 -0.0065,0.0291 -0.0135,0.0582 -0.02074,0.0873 -0.0072,0.029 -0.0148,0.058 -0.02286,0.0869 -0.0039,0.0145 -0.008,0.0289 -0.01228,0.0434 -0.0041,0.0144 -0.0083,0.0288 -0.01278,0.0431 -0.0086,0.0287 -0.01772,0.0573 -0.02708,0.0856 -0.0092,0.0284 -0.01904,0.0566 -0.029,0.08469 -0.02014,0.05609 -0.04149,0.111577 -0.06414,0.166358 -0.02286,0.05498 -0.04692,0.109362 -0.0724,0.163136 -0.02538,0.05378 -0.05216,0.106845 -0.08016,0.15931 -0.0281,0.05256 -0.0575,0.104427 -0.08812,0.155584 -0.0154,0.02568 -0.03102,0.05106 -0.04702,0.07633 -0.01602,0.02538 -0.03242,0.05046 -0.04904,0.07542 -0.0083,0.01248 -0.01682,0.02498 -0.02528,0.03736 -0.0084,0.01238 -0.01712,0.02478 -0.02578,0.03706 -0.0086,0.01238 -0.01742,0.02468 -0.02618,0.03686 -0.0088,0.01218 -0.01772,0.02437 -0.02668,0.03636 -0.01792,0.02416 -0.03605,0.04804 -0.05448,0.0717 -0.01842,0.02356 -0.03706,0.04692 -0.05608,0.06998 -0.03786,0.04622 -0.07674,0.09134 -0.116713,0.135443 -0.03998,0.0441 -0.08096,0.08721 -0.123057,0.1293 -0.042,0.042 -0.0851,0.08298 -0.129199,0.122956 -0.0441,0.03998 -0.08922,0.07896 -0.135444,0.116814 -0.02306,0.01894 -0.04642,0.03766 -0.07008,0.05608 -0.02366,0.01843 -0.04753,0.03656 -0.0716,0.05448 -0.01208,0.0088 -0.02426,0.01782 -0.03646,0.02658 -0.01218,0.0088 -0.02446,0.01762 -0.03686,0.02628 -0.02458,0.01732 -0.04944,0.03434 -0.07442,0.05096 -0.02498,0.01672 -0.05004,0.03303 -0.07532,0.04904 -0.02528,0.01602 -0.05076,0.03172 -0.07633,0.04702 -0.05126,0.03072 -0.103119,0.06002 -0.155584,0.08812 -0.05246,0.028 -0.105535,0.05478 -0.159309,0.08016 -0.05378,0.02548 -0.108153,0.04954 -0.163136,0.0724 -0.05478,0.02266 -0.110268,0.044 -0.166358,0.06414 -0.0281,0.0099 -0.0563,0.01974 -0.08469,0.029 -0.0283,0.0093 -0.0569,0.01842 -0.0856,0.02708 -0.0143,0.0044 -0.0287,0.0086 -0.0431,0.01279 -0.0145,0.0042 -0.0289,0.0083 -0.0434,0.01228 -0.0289,0.008 -0.0579,0.0156 -0.0869,0.02286 -0.0291,0.0073 -0.0582,0.0142 -0.08731,0.02074 -0.0291,0.0065 -0.0583,0.01268 -0.08761,0.01852 -0.0584,0.01158 -0.117116,0.02175 -0.176026,0.03052 -0.05892,0.0087 -0.117921,0.01612 -0.177234,0.02196 -0.05932,0.0058 -0.118828,0.01028 -0.178544,0.0133 -0.05972,0.0029 -0.119532,0.0044 -0.179651,0.0044"
           style="stroke:#000000;stroke-width:0.402805"
           id="path28-3" />
        <g
           id="g1389-7"
           transform="matrix(0.99993246,0,0,1.0200934,11.641668,4.2333335)">
          <path
             d="m -29.5,-21.5 v 43"
             style="stroke:#000000;stroke-width:0.4"
             id="path16-4" />
          <path
             d="m 29.5,21.5 h -59"
             style="stroke:#000000;stroke-width:0.4"
             id="path18-5" />
          <path
             d="m 29.5,-21.5 h -59"
             style="stroke:#000000;stroke-width:0.4"
             id="path30-2" />
          <path
             d="m 29.5,-21.5 v 43"
             style="stroke:#000000;stroke-width:0.4"
             id="path32-5" />
        </g>
        <path
           style="fill:#000000;stroke:#000000;stroke-width:0.0499999"
           d="m -38.520146,-25.842281 c 0.307048,0.262821 0.71885,0.783719 0.915117,1.157552 0.475083,0.904901 0.504535,2.493521 0.06194,3.340936 -0.676918,1.296056 -1.745078,2.022525 -3.138243,2.134354 -1.188373,0.09539 -2.043308,-0.220258 -2.934499,-1.083445 L -44.322453,-20.9773 V 4.2591502 29.495608 l 0.609484,-0.651589 c 1.352449,-1.445874 3.692926,-1.598287 5.167067,-0.336476 1.063352,0.91019 1.598618,2.567903 1.24782,3.864485 -0.197423,0.729695 -0.896897,1.75173 -1.454612,2.125404 l -0.449511,0.301177 h 50.829839 50.829852 l -0.57115,-0.435631 c -0.356259,-0.271727 -0.72099,-0.728742 -0.969399,-1.214673 -0.341313,-0.667665 -0.397561,-0.922184 -0.393422,-1.780254 0.0078,-1.621229 0.733096,-2.703499 2.291955,-3.420057 0.604512,-0.277879 0.84877,-0.316923 1.653646,-0.264353 1.146493,0.07488 1.809589,0.387977 2.570882,1.213884 l 0.556295,0.603507 V 4.2618622 -20.9773 l -0.706623,0.684416 c -0.893998,0.865905 -1.745261,1.178907 -2.94445,1.082646 -3.336737,-0.26784 -4.673301,-4.473252 -2.11709,-6.661274 l 0.524121,-0.448628 H 11.636913 -39.078414 Z M 41.336397,4.2392324 V 26.398089 H 11.636913 -18.06256 L -18.09653,4.371524 c -0.01868,-12.1146085 -0.0056,-22.101103 0.02903,-22.192213 0.05025,-0.132138 6.066536,-0.158906 29.733438,-0.132291 l 29.670451,0.03336 z"
           id="path467" />
      </g>
      <g
         id="g616-2"
         transform="translate(8.6205129,54.576208)"
         style="fill:none;stroke-linecap:round;stroke-linejoin:round">
        <circle
           cx="-40.974712"
           cy="31.422668"
           r="3.5192654"
           style="stroke:#000000;stroke-width:0.402805"
           id="circle2-0-6" />
        <path
           d="M 67.85189,-22.901012 V 31.367684"
           style="stroke:#000000;stroke-width:0.402805"
           id="path4-6-1" />
        <circle
           cx="-40.974712"
           cy="-22.955994"
           r="3.5192654"
           style="stroke:#000000;stroke-width:0.402805"
           id="circle6-1-8" />
        <path
           d="m 64.203081,-26.54982 c 0.06012,0 0.119936,0.0015 0.179651,0.0044 0.05972,0.003 0.119231,0.0074 0.178544,0.0133 0.05922,0.0058 0.118323,0.0132 0.177234,0.02196 0.05891,0.0087 0.117619,0.01894 0.176026,0.03052 0.0293,0.0058 0.0585,0.01198 0.0876,0.01852 0.0291,0.0065 0.0582,0.0135 0.08731,0.02074 0.029,0.0072 0.058,0.0148 0.0869,0.02286 0.0145,0.0039 0.0289,0.008 0.0434,0.01228 0.0144,0.0041 0.0288,0.0083 0.0431,0.01279 0.0287,0.0086 0.0573,0.01772 0.0856,0.02708 0.0284,0.0092 0.0566,0.01904 0.08469,0.029 0.05609,0.02014 0.111578,0.04149 0.166359,0.06414 0.05498,0.02286 0.109361,0.04692 0.163136,0.0724 0.05378,0.02538 0.106844,0.05216 0.159309,0.08016 0.05256,0.0281 0.104428,0.0575 0.155584,0.08812 0.02568,0.0154 0.05106,0.03102 0.07633,0.04702 0.02538,0.01602 0.05045,0.03242 0.07542,0.04904 0.01248,0.0083 0.02498,0.01682 0.03736,0.02528 0.01238,0.0084 0.02478,0.01712 0.03706,0.02578 0.01238,0.0086 0.02468,0.01742 0.03686,0.02618 0.01218,0.0088 0.02436,0.01772 0.03636,0.02668 0.02416,0.01792 0.04804,0.03605 0.0717,0.05448 0.02356,0.01842 0.04692,0.03706 0.06998,0.05609 0.04622,0.03786 0.09134,0.07674 0.135444,0.116713 0.0441,0.03998 0.0872,0.08096 0.1293,0.123056 0.042,0.042 0.08298,0.0851 0.122956,0.129199 0.03998,0.0441 0.07895,0.08922 0.116813,0.135444 0.01894,0.02306 0.03766,0.04642 0.05609,0.07008 0.01842,0.02366 0.03656,0.04753 0.05448,0.0716 0.0088,0.01208 0.01782,0.02426 0.02658,0.03646 0.0088,0.01218 0.01762,0.02446 0.02628,0.03686 0.01732,0.02457 0.03434,0.04944 0.05096,0.07442 0.01672,0.02498 0.03304,0.05005 0.04904,0.07532 0.01602,0.02528 0.03172,0.05076 0.04702,0.07633 0.03072,0.05126 0.06002,0.103119 0.08812,0.155584 0.028,0.05246 0.05478,0.105535 0.08016,0.159309 0.02548,0.05378 0.04954,0.108154 0.0724,0.163136 0.02266,0.05478 0.044,0.110268 0.06414,0.166359 0.0099,0.0281 0.01974,0.0563 0.029,0.08468 0.0093,0.0283 0.01842,0.0569 0.02708,0.0856 0.0044,0.0143 0.0086,0.0287 0.01278,0.0431 0.0042,0.0145 0.0083,0.0289 0.01228,0.0434 0.008,0.0289 0.0156,0.0579 0.02286,0.0869 0.0073,0.0291 0.0142,0.0582 0.02074,0.08731 0.0065,0.0291 0.01269,0.0583 0.01853,0.0876 0.01158,0.0584 0.02175,0.117116 0.03052,0.176026 0.0087,0.05891 0.01612,0.117922 0.02196,0.177235 0.0058,0.05932 0.01028,0.118827 0.0133,0.178543 0.0029,0.05972 0.0044,0.119532 0.0044,0.179651"
           style="stroke:#000000;stroke-width:0.402805"
           id="path8-5-7" />
        <path
           d="M -40.919733,-26.54982 H 64.203081"
           style="stroke:#000000;stroke-width:0.402805"
           id="path10-5-9" />
        <circle
           cx="64.258064"
           cy="-22.955994"
           r="3.5192654"
           style="stroke:#000000;stroke-width:0.402805"
           id="circle12-4-2" />
        <path
           d="m -44.568542,-22.901012 c 0,-0.06012 0.0015,-0.119935 0.0044,-0.179651 0.003,-0.05972 0.0074,-0.11923 0.0133,-0.178543 0.0058,-0.05922 0.0132,-0.118324 0.02196,-0.177234 0.0087,-0.05891 0.01894,-0.11762 0.03052,-0.176026 0.0058,-0.0293 0.01198,-0.0585 0.01853,-0.08761 0.0065,-0.0291 0.0135,-0.0582 0.02074,-0.0873 0.0072,-0.029 0.0148,-0.058 0.02286,-0.0869 0.0039,-0.0145 0.008,-0.0289 0.01228,-0.0434 0.0041,-0.0144 0.0083,-0.0288 0.01278,-0.0431 0.0086,-0.0287 0.01772,-0.0573 0.02708,-0.0856 0.0092,-0.0284 0.01904,-0.0566 0.029,-0.08469 0.02014,-0.05609 0.04149,-0.111577 0.06414,-0.166358 0.02286,-0.05498 0.04692,-0.109362 0.0724,-0.163136 0.02538,-0.05378 0.05216,-0.106845 0.08016,-0.15931 0.0281,-0.05256 0.0575,-0.104427 0.08812,-0.155584 0.0154,-0.02568 0.03102,-0.05106 0.04702,-0.07633 0.01602,-0.02538 0.03242,-0.05046 0.04904,-0.07542 0.0083,-0.01248 0.01682,-0.02498 0.02528,-0.03736 0.0084,-0.01238 0.01712,-0.02478 0.02578,-0.03706 0.0086,-0.01238 0.01742,-0.02468 0.02618,-0.03686 0.0088,-0.01218 0.01772,-0.02437 0.02668,-0.03636 0.01792,-0.02416 0.03605,-0.04804 0.05448,-0.0717 0.01842,-0.02356 0.03706,-0.04692 0.05608,-0.06998 0.03786,-0.04622 0.07674,-0.09134 0.116713,-0.135443 0.03998,-0.0441 0.08096,-0.08721 0.123057,-0.1293 0.042,-0.042 0.0851,-0.08298 0.129199,-0.122956 0.0441,-0.03998 0.08922,-0.07896 0.135444,-0.116814 0.02306,-0.01894 0.04642,-0.03766 0.07008,-0.05608 0.02366,-0.01843 0.04753,-0.03656 0.0716,-0.05448 0.01208,-0.0088 0.02426,-0.01782 0.03646,-0.02658 0.01218,-0.0088 0.02446,-0.01762 0.03686,-0.02628 0.02458,-0.01732 0.04944,-0.03434 0.07442,-0.05096 0.02498,-0.01672 0.05004,-0.03303 0.07532,-0.04904 0.02528,-0.01602 0.05076,-0.03172 0.07633,-0.04702 0.05126,-0.03072 0.103119,-0.06002 0.155584,-0.08812 0.05246,-0.028 0.105535,-0.05478 0.159309,-0.08016 0.05378,-0.02548 0.108153,-0.04954 0.163136,-0.0724 0.05478,-0.02266 0.110268,-0.044 0.166358,-0.06414 0.0281,-0.0099 0.0563,-0.01974 0.08469,-0.029 0.0283,-0.0093 0.0569,-0.01842 0.0856,-0.02708 0.0143,-0.0044 0.0287,-0.0086 0.0431,-0.01279 0.0145,-0.0042 0.0289,-0.0083 0.0434,-0.01228 0.0289,-0.008 0.0579,-0.0156 0.0869,-0.02286 0.0291,-0.0073 0.0582,-0.0142 0.08731,-0.02074 0.0291,-0.0065 0.0583,-0.01268 0.08761,-0.01852 0.0584,-0.01158 0.117116,-0.02175 0.176026,-0.03052 0.05892,-0.0087 0.117921,-0.01612 0.177234,-0.02196 0.05932,-0.0058 0.118828,-0.01028 0.178544,-0.0133 0.05972,-0.0029 0.119532,-0.0044 0.179651,-0.0044"
           style="stroke:#000000;stroke-width:0.402805"
           id="path14-7-0" />
        <circle
           cx="64.258064"
           cy="31.422668"
           r="3.5192654"
           style="stroke:#000000;stroke-width:0.402805"
           id="circle20-6-2" />
        <path
           d="m -40.919733,35.016492 c -0.06012,0 -0.119936,-0.0015 -0.179651,-0.0044 -0.05972,-0.003 -0.119231,-0.0074 -0.178544,-0.0133 -0.05922,-0.0058 -0.118323,-0.0132 -0.177234,-0.02196 -0.05891,-0.0087 -0.117619,-0.01894 -0.176026,-0.03052 -0.0293,-0.0058 -0.0585,-0.01198 -0.0876,-0.01852 -0.0291,-0.0065 -0.0582,-0.0135 -0.08731,-0.02074 -0.029,-0.0072 -0.058,-0.0148 -0.0869,-0.02286 -0.0145,-0.0039 -0.0289,-0.008 -0.0434,-0.01228 -0.0144,-0.0041 -0.0288,-0.0083 -0.0431,-0.01279 -0.0287,-0.0086 -0.0573,-0.01772 -0.0856,-0.02708 -0.0284,-0.0092 -0.0566,-0.01904 -0.08469,-0.029 -0.05609,-0.02014 -0.111578,-0.04149 -0.166359,-0.06414 -0.05498,-0.02286 -0.109361,-0.04692 -0.163136,-0.0724 -0.05378,-0.02538 -0.106844,-0.05216 -0.159309,-0.08016 -0.05256,-0.0281 -0.104428,-0.0575 -0.155584,-0.08812 -0.02568,-0.0154 -0.05106,-0.03102 -0.07633,-0.04702 -0.02538,-0.01602 -0.05045,-0.03242 -0.07542,-0.04904 -0.01248,-0.0083 -0.02498,-0.01682 -0.03736,-0.02528 -0.01238,-0.0084 -0.02478,-0.01712 -0.03706,-0.02578 -0.01238,-0.0086 -0.02468,-0.01742 -0.03686,-0.02618 -0.01218,-0.0088 -0.02436,-0.01772 -0.03636,-0.02668 -0.02416,-0.01792 -0.04804,-0.03605 -0.0717,-0.05448 -0.02356,-0.01842 -0.04692,-0.03706 -0.06998,-0.05609 -0.04622,-0.03786 -0.09134,-0.07674 -0.135444,-0.116713 -0.0441,-0.03998 -0.0872,-0.08096 -0.1293,-0.123056 -0.042,-0.042 -0.08298,-0.0851 -0.122956,-0.129199 -0.03998,-0.0441 -0.07895,-0.08922 -0.116813,-0.135444 -0.01894,-0.02306 -0.03766,-0.04642 -0.05609,-0.07008 -0.01842,-0.02366 -0.03656,-0.04753 -0.05448,-0.0716 -0.0088,-0.01208 -0.01782,-0.02426 -0.02658,-0.03646 -0.0088,-0.01218 -0.01762,-0.02446 -0.02628,-0.03686 -0.01732,-0.02457 -0.03434,-0.04944 -0.05096,-0.07442 -0.01672,-0.02498 -0.03304,-0.05005 -0.04904,-0.07532 -0.01602,-0.02528 -0.03172,-0.05076 -0.04702,-0.07633 -0.03072,-0.05126 -0.06002,-0.103119 -0.08812,-0.155584 -0.028,-0.05246 -0.05478,-0.105535 -0.08016,-0.159309 -0.02548,-0.05378 -0.04954,-0.108154 -0.0724,-0.163136 -0.02266,-0.05478 -0.044,-0.110268 -0.06414,-0.166359 -0.0099,-0.0281 -0.01974,-0.0563 -0.029,-0.08468 -0.0093,-0.0283 -0.01842,-0.0569 -0.02708,-0.0856 -0.0044,-0.0143 -0.0086,-0.0287 -0.01278,-0.0431 -0.0042,-0.0145 -0.0083,-0.0289 -0.01228,-0.0434 -0.008,-0.0289 -0.0156,-0.0579 -0.02286,-0.0869 -0.0073,-0.0291 -0.0142,-0.0582 -0.02074,-0.08731 -0.0065,-0.0291 -0.01269,-0.0583 -0.01853,-0.0876 -0.01158,-0.0584 -0.02175,-0.117116 -0.03052,-0.176026 -0.0087,-0.05891 -0.01612,-0.117922 -0.02196,-0.177235 -0.0058,-0.05932 -0.01028,-0.118827 -0.0133,-0.178543 -0.0029,-0.05972 -0.0044,-0.119532 -0.0044,-0.179651"
           style="stroke:#000000;stroke-width:0.402805"
           id="path22-5-3" />
        <path
           d="M -44.568542,31.367684 V -22.901012"
           style="stroke:#000000;stroke-width:0.402805"
           id="path24-6-7" />
        <path
           d="M 64.203081,35.016492 H -40.919733"
           style="stroke:#000000;stroke-width:0.402805"
           id="path26-9-5" />
        <path
           d="m 67.85189,31.367684 c 0,0.06012 -0.0015,0.119935 -0.0044,0.179651 -0.003,0.05972 -0.0074,0.11923 -0.0133,0.178543 -0.0058,0.05922 -0.0132,0.118324 -0.02196,0.177234 -0.0087,0.05891 -0.01894,0.11762 -0.03052,0.176026 -0.0058,0.0293 -0.01198,0.0585 -0.01853,0.08761 -0.0065,0.0291 -0.0135,0.0582 -0.02074,0.0873 -0.0072,0.029 -0.0148,0.058 -0.02286,0.0869 -0.0039,0.0145 -0.008,0.0289 -0.01228,0.0434 -0.0041,0.0144 -0.0083,0.0288 -0.01278,0.0431 -0.0086,0.0287 -0.01772,0.0573 -0.02708,0.0856 -0.0092,0.0284 -0.01904,0.0566 -0.029,0.08469 -0.02014,0.05609 -0.04149,0.111577 -0.06414,0.166358 -0.02286,0.05498 -0.04692,0.109362 -0.0724,0.163136 -0.02538,0.05378 -0.05216,0.106845 -0.08016,0.15931 -0.0281,0.05256 -0.0575,0.104427 -0.08812,0.155584 -0.0154,0.02568 -0.03102,0.05106 -0.04702,0.07633 -0.01602,0.02538 -0.03242,0.05046 -0.04904,0.07542 -0.0083,0.01248 -0.01682,0.02498 -0.02528,0.03736 -0.0084,0.01238 -0.01712,0.02478 -0.02578,0.03706 -0.0086,0.01238 -0.01742,0.02468 -0.02618,0.03686 -0.0088,0.01218 -0.01772,0.02437 -0.02668,0.03636 -0.01792,0.02416 -0.03605,0.04804 -0.05448,0.0717 -0.01842,0.02356 -0.03706,0.04692 -0.05608,0.06998 -0.03786,0.04622 -0.07674,0.09134 -0.116713,0.135443 -0.03998,0.0441 -0.08096,0.08721 -0.123057,0.1293 -0.042,0.042 -0.0851,0.08298 -0.129199,0.122956 -0.0441,0.03998 -0.08922,0.07896 -0.135444,0.116814 -0.02306,0.01894 -0.04642,0.03766 -0.07008,0.05608 -0.02366,0.01843 -0.04753,0.03656 -0.0716,0.05448 -0.01208,0.0088 -0.02426,0.01782 -0.03646,0.02658 -0.01218,0.0088 -0.02446,0.01762 -0.03686,0.02628 -0.02458,0.01732 -0.04944,0.03434 -0.07442,0.05096 -0.02498,0.01672 -0.05004,0.03303 -0.07532,0.04904 -0.02528,0.01602 -0.05076,0.03172 -0.07633,0.04702 -0.05126,0.03072 -0.103119,0.06002 -0.155584,0.08812 -0.05246,0.028 -0.105535,0.05478 -0.159309,0.08016 -0.05378,0.02548 -0.108153,0.04954 -0.163136,0.0724 -0.05478,0.02266 -0.110268,0.044 -0.166358,0.06414 -0.0281,0.0099 -0.0563,0.01974 -0.08469,0.029 -0.0283,0.0093 -0.0569,0.01842 -0.0856,0.02708 -0.0143,0.0044 -0.0287,0.0086 -0.0431,0.01279 -0.0145,0.0042 -0.0289,0.0083 -0.0434,0.01228 -0.0289,0.008 -0.0579,0.0156 -0.0869,0.02286 -0.0291,0.0073 -0.0582,0.0142 -0.08731,0.02074 -0.0291,0.0065 -0.0583,0.01268 -0.08761,0.01852 -0.0584,0.01158 -0.117116,0.02175 -0.176026,0.03052 -0.05892,0.0087 -0.117921,0.01612 -0.177234,0.02196 -0.05932,0.0058 -0.118828,0.01028 -0.178544,0.0133 -0.05972,0.0029 -0.119532,0.0044 -0.179651,0.0044"
           style="stroke:#000000;stroke-width:0.402805"
           id="path28-3-9" />
        <g
           id="g1389-7-2"
           transform="matrix(0.99993246,0,0,1.0200934,11.641668,4.2333335)">
          <path
             d="m -29.5,-21.5 v 43"
             style="stroke:#000000;stroke-width:0.4"
             id="path16-4-2" />
          <path
             d="m 29.5,21.5 h -59"
             style="stroke:#000000;stroke-width:0.4"
             id="path18-5-8" />
          <path
             d="m 29.5,-21.5 h -59"
             style="stroke:#000000;stroke-width:0.4"
             id="path30-2-9" />
          <path
             d="m 29.5,-21.5 v 43"
             style="stroke:#000000;stroke-width:0.4"
             id="path32-5-7" />
        </g>
        <path
           style="fill:#000000;stroke:#000000;stroke-width:0.0499999"
           d="m -38.520146,-25.842281 c 0.307048,0.262821 0.71885,0.783719 0.915117,1.157552 0.475083,0.904901 0.504535,2.493521 0.06194,3.340936 -0.676918,1.296056 -1.745078,2.022525 -3.138243,2.134354 -1.188373,0.09539 -2.043308,-0.220258 -2.934499,-1.083445 L -44.322453,-20.9773 V 4.2591502 29.495608 l 0.609484,-0.651589 c 1.352449,-1.445874 3.692926,-1.598287 5.167067,-0.336476 1.063352,0.91019 1.598618,2.567903 1.24782,3.864485 -0.197423,0.729695 -0.896897,1.75173 -1.454612,2.125404 l -0.449511,0.301177 h 50.829839 50.829852 l -0.57115,-0.435631 c -0.356259,-0.271727 -0.72099,-0.728742 -0.969399,-1.214673 -0.341313,-0.667665 -0.397561,-0.922184 -0.393422,-1.780254 0.0078,-1.621229 0.733096,-2.703499 2.291955,-3.420057 0.604512,-0.277879 0.84877,-0.316923 1.653646,-0.264353 1.146493,0.07488 1.809589,0.387977 2.570882,1.213884 l 0.556295,0.603507 V 4.2618622 -20.9773 l -0.706623,0.684416 c -0.893998,0.865905 -1.745261,1.178907 -2.94445,1.082646 -3.336737,-0.26784 -4.673301,-4.473252 -2.11709,-6.661274 l 0.524121,-0.448628 H 11.636913 -39.078414 Z M 41.336397,4.2392324 V 26.398089 H 11.636913 -18.06256 L -18.09653,4.371524 c -0.01868,-12.1146085 -0.0056,-22.101103 0.02903,-22.192213 0.05025,-0.132138 6.066536,-0.158906 29.733438,-0.132291 l 29.670451,0.03336 z"
           id="path467-3" />
      </g>
    </g>
  </g>
</svg>
